# AST/ASF file generated using VICON BodyLanguage
# -----------------------------------------------
:version 1.10
:name VICON
:units
  mass 1.0
  length 0.45
  angle deg
:documentation
   .ast/.asf automatically generated from VICON data using
   VICON BodyBuilder and BodyLanguage model FoxedUp or BRILLIANT.MOD
:root
   order TX TY TZ RX RY RZ
   axis XYZ
   position 0 0 0  
   orientation 0 0 0 
:bonedata
  begin
     id 1 
     name lhipjoint
     direction 0.566809 -0.746272 0.349008 
     length 2.40479 
     axis 0 0 0  XYZ
  end
  begin
     id 2 
     name lfemur
     direction 0.34202 -0.939693 0  
     length 7.1578  
     axis 0 0 20  XYZ
    dof rx ry rz
    limits (-160.0 20.0)
           (-70.0 70.0)
           (-60.0 70.0)
  end
  begin
     id 3 
     name ltibia
     direction 0.34202 -0.939693 0   
     length 7.49137   
     axis 0 0 20   XYZ
    dof rx
    limits (-10.0 170.0)
  end
  begin
     id 4 
     name lfoot
     direction 0.0665746 -0.182912 0.980873   
     length 2.36784   
     axis -90 7.62852e-016 20   XYZ
    dof rx rz
    limits (-45.0 90.0)
           (-70.0 20.0)
  end
  begin
     id 5 
     name ltoes
     direction 1.53601e-011 -4.22058e-011 1   
     length 1.18966   
     axis -90 7.62852e-016 20   XYZ
    dof rx
    limits (-90.0 20.0)
  end
  begin
     id 6 
     name rhipjoint
     direction -0.550236 -0.756381 0.353735   
     length 2.37265  
     axis 0 0 0  XYZ 
  end
  begin
     id 7 
     name rfemur
     direction -0.34202 -0.939693 0   
     length 7.43386   
     axis 0 0 -20   XYZ
    dof rx ry rz
    limits (-160.0 20.0)
           (-70.0 70.0)
           (-70.0 60.0)
  end
  begin
     id 8 
     name rtibia
     direction -0.34202 -0.939693 0   
     length 7.50908   
     axis 0 0 -20   XYZ
    dof rx
    limits (-10.0 170.0)
 end
 begin
     id 9 
     name rfoot
     direction -0.0683029 -0.187661 0.979856   
     length 2.41173  
     axis -90 -7.62852e-016 -20   XYZ
    dof rx rz
    limits (-45.0 90.0)
           (-20.0 70.0)
  end
  begin
     id 10 
     name rtoes
     direction -1.53528e-011 -4.21968e-011 1   
     length 1.21082   
     axis -90 -7.62852e-016 -20   XYZ
    dof rx
    limits (-90.0 20.0)
  end
  begin
     id 11 
     name lowerback
     direction 0.013823 0.995423 -0.0945635   
     length 2.04495   
     axis 0 0 0   XYZ
    dof rx ry rz
    limits (-20.0 45.0)
           (-30.0 30.0)
           (-30.0 30.0)
  end
  begin
     id 12 
     name upperback
     direction 0.0276657 0.9994 -0.020853   
     length 2.05008   
     axis 0 0 0   XYZ
    dof rx ry rz
    limits (-20.0 45.0)
           (-30.0 30.0)
           (-30.0 30.0)
  end
  begin
     id 13 
     name thorax
     direction 0.019782 0.999531 0.0233827   
     length 2.06488   
     axis 0 0 0   XYZ
    dof rx ry rz
    limits (-20.0 45.0)
           (-30.0 30.0)
           (-30.0 30.0)
  end
  begin
     id 14 
     name lowerneck
     direction -0.0308541 0.994709 0.0979874   
     length 1.75553   
     axis 0 0 0   XYZ
    dof rx ry rz
    limits (-20.0 45.0)
           (-30.0 30.0)
           (-30.0 30.0)
  end
  begin
     id 15 
     name upperneck
     direction 0.0588398 0.995804 -0.0700903   
     length 1.76878   
     axis 0 0 0   XYZ
    dof rx ry rz
    limits (-20.0 45.0)
           (-30.0 30.0)
           (-30.0 30.0)
  end
  begin
     id 16
     name head
     direction 0.0209966 0.999159 -0.0352225  
     length 1.77193  
     axis 0 0 0   XYZ
    dof rx ry rz
    limits (-20.0 45.0)
           (-30.0 30.0)
           (-30.0 30.0)
  end
  begin
     id 17 
     name lclavicle
     direction 0.938182 0.335073 -0.0868338  
     length 3.58396  
     axis 0 0 0   XYZ
    dof ry rz
    limits (-20.0 10.0)
           (0.0 20.0)
  end
  begin
     id 18 
     name lhumerus
     direction 1 -4.48971e-011 -1.26313e-017   
     length 4.983   
     axis 180 -30 -90   XYZ
    dof rx ry rz
    limits (-60.0 90.0)
           (-90.0 90.0)
           (-90.0 90.0)
  end
  begin
     id 19
     name lradius
     direction 1 -4.48948e-011 -5.89033e-027   
     length 3.48356   
     axis 180 -30 -90   XYZ
    dof rx
    limits (-10.0 170.0)
  end
  begin
     id 20
     name lwrist
     direction 1 -4.48977e-011 -1.48983e-026   
     length 1.74178   
     axis 9.0955e-015 90 90   XYZ
    dof ry
    limits (-180.0 0.0)
 end
  begin
     id 21 
     name lhand
     direction 1 -4.49046e-011 -2.98066e-026   
     length 0.715259   
     axis 1.90115e-014 90 90   XYZ
    dof rx rz
    limits (-90.0 90.0)
           (-45.0 45.0)
  end
  begin
     id 22 
     name lfingers
     direction 1 -4.48907e-011 -5.95731e-026   
     length 0.576661   
     axis 3.80223e-014 90 90   XYZ
    dof rx
    limits (0.0 90.0)
  end
  begin
     id 23
     name lthumb
     direction 0.707107 -6.34963e-011 0.707107   
     length 0.827973   
     axis -90 45 -3.84942e-014   XYZ
    dof rx rz
    limits (-45.0 45.0)
           (-45.0 45.0)
  end
  begin
     id 24 
     name rclavicle
     direction -0.909637 0.398485 -0.11735   
     length 3.44819  
     axis 0 0 0   XYZ 
    dof ry rz
    limits (-10.0 20.0)
           (-20.0 0.0)
  end
  begin
     id 25 
     name rhumerus
     direction -1 -4.48978e-011 -1.09333e-027  
     length 5.2419   
     axis 180 30 90   XYZ
    dof rx ry rz
    limits (-90.0 60.0)
           (-90.0 90.0)
           (-90.0 90.0)
  end
  begin
     id 26 
     name rradius
     direction -1 -4.48953e-011 -7.61841e-027   
     length 3.44417   
     axis 180 30 90   XYZ
    dof rx
    limits (-10.0 170.0)
  end
  begin
     id 27 
     name rwrist
     direction -1 -4.48977e-011 -1.48983e-026   
     length 1.72209   
     axis 9.0955e-015 -90 -90   XYZ
    dof ry
    limits (-180.0 0.0)
  end
  begin
     id 28
     name rhand
     direction -1 -4.49027e-011 -2.98038e-026   
     length 0.622529   
     axis 1.90115e-014 -90 -90   XYZ
    dof rx rz
    limits (-90.0 90.0)
           (-45.0 45.0)
  end
  begin
     id 29
     name rfingers
     direction -1 -4.48838e-011 -5.95531e-026   
     length 0.501899   
     axis 3.80223e-014 -90 -90   XYZ
    dof rx
    limits (0.0 90.0)
  end
  begin
     id 30
     name rthumb
     direction -0.707107 -6.34937e-011 0.707107   
     length 0.720629   
     axis -90 -45 3.84942e-014   XYZ
    dof rx rz
    limits (-45.0 45.0)
           (-45.0 45.0)
  end
:hierarchy
  begin
    root lhipjoint rhipjoint lowerback
    lhipjoint lfemur
    lfemur ltibia
    ltibia lfoot
    lfoot ltoes
    rhipjoint rfemur
    rfemur rtibia
    rtibia rfoot
    rfoot rtoes
    lowerback upperback
    upperback thorax
    thorax lowerneck lclavicle rclavicle
    lowerneck upperneck
    upperneck head
    lclavicle lhumerus
    lhumerus lradius
    lradius lwrist
    lwrist lhand lthumb
    lhand lfingers
    rclavicle rhumerus
    rhumerus rradius
    rradius rwrist
    rwrist rhand rthumb
    rhand rfingers
  end

#!OML:ASF F:\VICON\USERDATA\Patient Classification 1\PLAYGROUND\JustinFriday\JustinFriday.ASF
:FULLY-SPECIFIED
:DEGREES
680
root -19.5017 27.2696 -10.1369 234.806 80.3133 -143.995
lowerback 39.9101 -1.47865 2.54419
upperback 19.7439 2.35167 3.01967
thorax 2.41803 2.25864 1.18047
lowerneck -4.0446 -12.7729 -10.0071
upperneck -38.7423 -12.8546 18.4321
head -9.43378 -5.74738 8.93626
rclavicle -2.0276e-014 -4.87022e-015
rhumerus 34.207 -4.86039 -59.3249
rradius 111.649
rwrist 13.5516
rhand -23.1739 -16.5424
rfingers 7.12502
rthumb 3.27518 -46.497
lclavicle -2.0276e-014 -4.87022e-015
lhumerus 46.2003 -1.75172 48.4732
lradius 106.805
lwrist -22.2174
lhand -7.71365 -3.56078
lfingers 7.12502
lthumb 18.1843 25.6092
rfemur -27.7901 -4.61863 32.7137
rtibia 28.5339
rfoot -9.03336 7.46205
rtoes 26.8765
lfemur -77.6764 7.8475 -18.3703
ltibia 94.057
lfoot -32.6497 -8.22898
ltoes -6.70663
681
root -19.394 27.2911 -10.1571 233.392 80.2842 -146.107
lowerback 39.3859 -1.6529 2.95463
upperback 19.4064 2.14117 2.36069
thorax 2.23655 2.20806 0.336031
lowerneck -2.98344 -12.8073 -10.2094
upperneck -38.598 -12.6629 20.0512
head -9.37452 -5.90321 9.63122
rclavicle -2.70347e-014 -1.59525e-014
rhumerus 32.4123 -4.67399 -60.6901
rradius 112.402
rwrist 14.1195
rhand -23.5159 -16.1621
rfingers 7.12502
rthumb 2.94484 -46.1215
lclavicle -2.70347e-014 -1.59525e-014
lhumerus 45.8533 -3.02649 47.8538
lradius 107.572
lwrist -21.9637
lhand -6.8144 -2.92585
lfingers 7.12502
lthumb 19.0493 26.1613
rfemur -27.9381 -5.41656 32.7728
rtibia 27.8973
rfoot -8.40385 8.16161
rtoes 25.4047
lfemur -77.736 7.58204 -18.3842
ltibia 93.796
lfoot -31.7374 -13.518
ltoes 10.1927
682
root -19.2882 27.338 -10.1676 231.649 80.1556 -148.001
lowerback 39.572 -1.78978 3.24196
upperback 19.2283 2.05361 1.9668
thorax 2.00833 2.20983 -0.20761
lowerneck -2.47396 -13.0057 -9.39355
upperneck -38.2258 -12.8082 20.9515
head -9.2605 -6.26988 9.82697
rclavicle 2.66371e-014 2.0773e-014
rhumerus 30.8546 -4.62044 -61.4998
rradius 113.097
rwrist 14.4777
rhand -23.9209 -16.1089
rfingers 7.12502
rthumb 2.55379 -46.0733
lclavicle 2.66371e-014 2.0773e-014
lhumerus 45.6707 -4.09594 47.7532
lradius 108.328
lwrist -21.7642
lhand -5.60048 -2.36435
lfingers 7.12502
lthumb 20.2164 26.6036
rfemur -27.5351 -5.84067 32.6644
rtibia 27.4486
rfoot -8.0412 8.09135
rtoes 23.9561
lfemur -77.0257 7.37434 -18.3886
ltibia 93.394
lfoot -32.5269 -12.8268
ltoes 7.44923
683
root -19.1883 27.476 -10.1516 232.152 80.3446 -147.426
lowerback 40.2982 -1.46359 2.31153
upperback 18.9486 2.17855 2.45554
thorax 1.60232 2.14697 0.742928
lowerneck -1.60178 -13.0601 -10.0173
upperneck -39.0517 -13.076 20.7395
head -9.65738 -6.28438 10.0278
rclavicle -4.92986e-014 -2.70347e-014
rhumerus 30.0961 -3.4624 -61.0822
rradius 113.441
rwrist 14.6786
rhand -24.4876 -16.0645
rfingers 7.12502
rthumb 2.00645 -46.0348
lclavicle -4.92986e-014 -2.70347e-014
lhumerus 44.2146 -4.36488 49.0856
lradius 109.364
lwrist -21.5261
lhand -4.069 -1.93659
lfingers 7.12502
lthumb 21.6877 26.8686
rfemur -26.376 -5.75608 32.5335
rtibia 25.9261
rfoot -7.06666 7.52989
rtoes 21.6194
lfemur -76.1014 7.16791 -17.2717
ltibia 92.8932
lfoot -29.5446 -19.1893
ltoes 21.3279
684
root -19.0685 27.4344 -10.2472 231.875 79.0486 -147.121
lowerback 41.6553 -2.61594 4.33069
upperback 18.8116 1.65031 2.15112
thorax 1.1353 2.08023 -0.450277
lowerneck -2.3476 -12.9998 -9.02549
upperneck -37.9719 -13.0379 20.2898
head -9.26546 -6.38216 9.51107
rclavicle -4.1546e-014 -4.22914e-014
rhumerus 29.1309 -2.9903 -62.118
rradius 113.765
rwrist 15.4464
rhand -24.9633 -15.91
rfingers 7.12502
rthumb 1.54702 -45.8841
lclavicle -4.1546e-014 -4.22914e-014
lhumerus 43.6315 -4.93886 49.1901
lradius 110.452
lwrist -20.9238
lhand -2.61456 -1.32203
lfingers 7.12502
lthumb 23.0838 27.3153
rfemur -25.033 -7.2251 33.3886
rtibia 25.1132
rfoot -6.74003 8.00428
rtoes 19.0058
lfemur -74.5233 6.18025 -17.1003
ltibia 92.4574
lfoot -33.8663 -11.4325
ltoes 5.17608
685
root -18.9643 27.5995 -10.2177 233.148 79.9728 -146.408
lowerback 41.4137 -1.80617 2.72182
upperback 18.8072 1.99401 2.44943
thorax 1.14018 2.08674 0.56508
lowerneck -1.38735 -12.6311 -9.33826
upperneck -39.7049 -12.6805 19.4656
head -10.251 -5.97315 9.5888
rclavicle -1.13307e-014 -3.04638e-014
rhumerus 28.6618 -1.84895 -62.1965
rradius 113.956
rwrist 15.9047
rhand -25.4004 -15.6805
rfingers 7.12502
rthumb 1.12482 -45.6572
lclavicle -1.13307e-014 -3.04638e-014
lhumerus 42.6054 -5.22389 50.358
lradius 111.152
lwrist -21.1231
lhand -1.37924 -0.6842
lfingers 7.12502
lthumb 24.2687 27.7998
rfemur -24.4847 -5.03039 32.0956
rtibia 23.801
rfoot -4.59614 7.54476
rtoes 29.1631
lfemur -73.7363 6.66505 -16.192
ltibia 91.6038
lfoot -30.9016 -17.9012
ltoes 12.3037
686
root -18.8633 27.6407 -10.2129 233.367 80.3135 -147.024
lowerback 40.9639 -1.59602 2.4656
upperback 18.4784 2.01043 1.97118
thorax 0.908454 2.07319 0.177082
lowerneck -1.5314 -13.9573 -9.85326
upperneck -39.0424 -14.0287 22.5395
head -9.27052 -7.03328 10.5976
rclavicle 2.8625e-014 1.40392e-014
rhumerus 27.649 -1.08006 -63.485
rradius 113.725
rwrist 16.692
rhand -26.1063 -15.1595
rfingers 7.12502
rthumb 0.443097 -45.1388
lclavicle 2.8625e-014 1.40392e-014
lhumerus 42.089 -6.36446 50.69
lradius 111.603
lwrist -21.3363
lhand -0.190032 -0.598264
lfingers 7.12502
lthumb 25.4083 27.7285
rfemur -24.3546 -2.66489 30.8088
rtibia 22.8402
rfoot -3.35109 5.84869
rtoes 39.4975
lfemur -73.4791 7.21577 -18.0121
ltibia 90.6183
lfoot -35.6963 -6.61641
ltoes -8.50805
687
root -18.76 27.5696 -10.2447 233.078 80.3031 -147.924
lowerback 40.8914 -1.80105 2.14491
upperback 18.0527 1.5333 1.46585
thorax 0.45725 1.81427 -0.0507968
lowerneck -0.908423 -12.3566 -7.475
upperneck -37.9162 -12.0964 20.3511
head -9.80531 -6.23383 9.47099
rclavicle 2.41026e-015 1.46984e-014
rhumerus 26.2206 0.0783385 -64.7002
rradius 114.292
rwrist 16.9925
rhand -26.7867 -14.7196
rfingers 7.12502
rthumb -0.214079 -44.6992
lclavicle 2.41026e-015 1.46984e-014
lhumerus 40.6808 -7.0517 50.8177
lradius 111.911
lwrist -21.6106
lhand 0.500539 -1.23477
lfingers 7.12502
lthumb 26.0697 26.9962
rfemur -25.1473 -6.3184 32.8025
rtibia 22.0862
rfoot -3.81514 7.52939
rtoes 15.0399
lfemur -73.8307 7.03242 -18.2038
ltibia 90.4944
lfoot -35.1178 -11.3961
ltoes 5.11171
688
root -18.6405 27.7237 -10.2888 232.427 79.8302 -148.812
lowerback 41.2134 -2.06352 2.76733
upperback 17.7926 1.46973 2.06036
thorax 0.0713748 1.77074 0.267378
lowerneck -0.15378 -12.6082 -9.00305
upperneck -38.188 -12.6506 20.6883
head -9.77075 -6.36963 9.9189
rclavicle 6.63941e-014 4.25275e-014
rhumerus 24.5523 0.439207 -63.4859
rradius 115.008
rwrist 17.1119
rhand -27.4057 -14.4636
rfingers 7.12502
rthumb -0.81188 -44.4418
lclavicle 6.63941e-014 4.25275e-014
lhumerus 39.6834 -8.30675 52.773
lradius 112.164
lwrist -22.695
lhand 0.857438 -1.4766
lfingers 7.12502
lthumb 26.4114 26.7036
rfemur -24.5309 -6.43642 32.592
rtibia 21.379
rfoot -2.50374 7.77232
rtoes 18.6519
lfemur -73.2082 6.25924 -16.821
ltibia 89.8644
lfoot -35.4192 -12.0598
ltoes 0.504203
689
root -18.5367 27.7368 -10.3268 233.319 80.0866 -148.191
lowerback 41.5989 -2.0131 2.82684
upperback 17.5692 1.55207 2.28077
thorax -0.290369 1.78095 0.42981
lowerneck 1.34067 -12.9556 -8.82371
upperneck -41.6979 -13.3174 19.8466
head -11.4872 -6.39334 10.2128
rclavicle -8.50798e-014 -5.12367e-014
rhumerus 23.2355 0.931112 -62.605
rradius 115.429
rwrist 17.1681
rhand -28.0282 -14.1944
rfingers 7.12502
rthumb -1.41312 -44.1694
lclavicle -8.50798e-014 -5.12367e-014
lhumerus 38.5335 -8.72767 53.492
lradius 112.956
lwrist -22.8283
lhand 0.906658 -0.407371
lfingers 7.12502
lthumb 26.4585 27.7657
rfemur -23.7966 -6.28631 32.0714
rtibia 19.8741
rfoot -0.348928 7.99754
rtoes 22.0964
lfemur -72.0252 6.55044 -18.0637
ltibia 88.9841
lfoot -36.4614 -11.546
ltoes 6.48584
690
root -18.414 27.8179 -10.3968 235.277 79.3713 -146.412
lowerback 42.1446 -2.7169 3.73023
upperback 17.3652 1.10296 2.73291
thorax -0.659159 1.57585 0.594883
lowerneck 0.722453 -13.0435 -12.3001
upperneck -39.4837 -13.3494 22.1447
head -9.80001 -6.41004 11.1829
rclavicle -6.23687e-014 -3.844e-014
rhumerus 22.9501 2.3038 -61.5602
rradius 115.436
rwrist 16.977
rhand -28.4881 -13.8726
rfingers 7.12502
rthumb -1.85735 -43.8442
lclavicle -6.23687e-014 -3.844e-014
lhumerus 36.8393 -9.03048 54.6816
lradius 113.405
lwrist -23.6232
lhand 0.613585 0.532864
lfingers 7.12502
lthumb 26.1779 28.7479
rfemur -23.0651 -5.90156 32.2965
rtibia 18.8576
rfoot 1.21119 7.3671
rtoes 26.8297
lfemur -71.1098 6.34367 -17.4459
ltibia 88.0771
lfoot -37.5831 -3.55699
ltoes -12.6954
691
root -18.3355 27.9123 -10.3587 236.937 81.4143 -145.577
lowerback 42.1186 -1.24696 1.95282
upperback 16.5909 1.91962 1.54012
thorax -1.51904 1.86635 -0.0757136
lowerneck 1.76459 -12.7872 -11.2741
upperneck -37.7624 -12.7922 23.4357
head -9.38022 -6.6373 11.4074
rclavicle 1.28216e-014 1.9456e-014
rhumerus 20.0481 1.9389 -63.5077
rradius 115.681
rwrist 17.6643
rhand -28.8428 -13.7628
rfingers 7.12502
rthumb -2.19986 -43.7312
lclavicle 1.28216e-014 1.9456e-014
lhumerus 36.1383 -11.5942 52.8311
lradius 114.163
lwrist -23.9265
lhand 0.767225 1.56452
lfingers 7.12502
lthumb 26.325 29.7576
rfemur -23.5903 -3.95866 30.6075
rtibia 18.5391
rfoot 1.73811 6.99085
rtoes 21.3083
lfemur -70.9099 6.9557 -17.9332
ltibia 87.3217
lfoot -34.1888 -19.027
ltoes 22.417
692
root -18.1917 27.9502 -10.4299 229.905 80.7625 -152.495
lowerback 42.588 -2.2606 2.86247
upperback 16.5878 1.12084 1.28812
thorax -1.63329 1.56923 -0.523961
lowerneck 1.33754 -12.7586 -11.0235
upperneck -37.3557 -12.6769 23.514
head -9.18485 -6.6274 11.2996
rclavicle 3.27995e-014 3.11222e-014
rhumerus 19.1804 2.76388 -64.1492
rradius 115.513
rwrist 18.6707
rhand -29.6521 -14.1523
rfingers 7.12502
rthumb -2.98146 -44.1112
lclavicle 3.27995e-014 3.11222e-014
lhumerus 35.2128 -12.4685 52.6299
lradius 114.814
lwrist -24.4662
lhand 0.97155 2.59732
lfingers 7.12502
lthumb 26.5206 30.761
rfemur -22.2027 -5.22075 29.9284
rtibia 16.8907
rfoot 3.23659 6.72295
rtoes 22.0613
lfemur -69.3408 5.77614 -19.2287
ltibia 86.2293
lfoot -38.4217 -0.248563
ltoes -17.5164
